<svg height="53.531" width="53" xmlns="http://www.w3.org/2000/svg" xmlns:xlink="http://www.w3.org/1999/xlink"><linearGradient id="a" gradientTransform="matrix(.2087115 0 0 .2080024 334.28256 88.162599)" gradientUnits="userSpaceOnUse" x1="275.73" x2="352.27" y1="571.91" y2="571.91"><stop offset="0" stop-color="#d8d8d8"/><stop offset="1" stop-color="#b1b1b1"/></linearGradient><linearGradient id="b" gradientTransform="matrix(.2087115 0 0 .2080024 307.55257 120.92404)" gradientUnits="userSpaceOnUse" x1="332.92" x2="355.82" y1="520.33" y2="535.99"><stop offset="0" stop-color="#656565"/><stop offset="1" stop-color="#939393"/></linearGradient><linearGradient id="c" gradientTransform="matrix(-.2087115 0 0 .2080024 492.43776 120.92404)" gradientUnits="userSpaceOnUse" x1="338.63" x2="358.68" y1="522.48" y2="538.13"><stop offset="0" stop-color="#d6d6d6"/><stop offset="1" stop-color="#939393"/></linearGradient><linearGradient id="d" gradientTransform="matrix(.2087115 0 0 .2080024 307.55257 120.92404)" gradientUnits="userSpaceOnUse" x1="529.11" x2="526.08" y1="333.99" y2="321.37"><stop offset="0" stop-color="#d6d6d6"/><stop offset="1" stop-color="#656565"/></linearGradient><g transform="translate(-373.5 -185.59375)"><g fill-rule="evenodd"><rect fill="#656565" height="52.044" rx="4.7705" ry="4.0115" width="51.494" x="374.25" y="186.34"/><path d="m414.44 190.2h11.279v34.564h-11.279z" fill="#d6d6d6"/><path d="m416.6 193.22 9.0939-2.9715c-.36125-2.8568-2.3291-3.8457-5.0687-3.9372-3.6454.10572-7.2028.26014-9.0939 1.3372z" fill="url(#d)"/><path d="m383.35 225.4h33.469v12.975h-33.469z" fill="#929292"/><path d="m414.9 222.35 10.805 1.1556.0395 10.506c-.006 2.7094-2.1668 4.2661-4.4011 4.3599l-4.8096-.0525-5.3235-12.344 3.6895-3.6245z" fill="url(#c)"/><path d="m381.76 222.25-7.4845 1.2607-.0395 10.506c.006 2.7094 2.1668 4.2661 4.4011 4.3599l4.8096-.0525 1.6866-12.292-3.3733-3.782z" fill="url(#b)"/><rect fill="#f1f1f1" height="40.245" rx="4.7705" ry="4.7543" width="36.535" x="381.02" y="187"/><rect fill="url(#a)" height="40.245" rx="4.7705" ry="4.7543" width="35.481" x="381.02" y="187"/></g><text font-family="Arial" font-size="13" transform="scale(1.0017033 .9982996)" x="385.11469" y="201.7103"><tspan x="385.11469" y="201.7103">~</tspan></text><text font-family="Arial" font-size="13" transform="scale(1.0017033 .9982996)" x="385.11469" y="223.17537"><tspan x="385.11469" y="223.17537">`</tspan></text></g></svg>